<svg aria-hidden="true" style="position: absolute; width: 0; height: 0; overflow: hidden;" version="1.1" xmlns="http://www.w3.org/2000/svg" xmlns:xlink="http://www.w3.org/1999/xlink">
<defs>
<symbol id="icon-appello-logo" viewBox="0 0 98 32">
<path fill="#fff" style="fill: var(--color1, #fff)" d="M37.477 21.749l4.972-12.846h2.631l4.953 12.846h-2.413l-0.98-2.631h-5.806l-0.962 2.631h-2.395zM43.737 11.226l-2.214 6.006h4.427l-2.214-6.006zM59.827 16.977c0 3.139-1.706 4.935-4.082 4.935-0.925 0-1.687-0.272-2.431-0.726v3.429h-2.159v-12.356h1.651l0.345 0.889c0.69-0.562 1.56-1.052 2.794-1.052 2.214 0 3.883 1.778 3.883 4.881zM57.759 16.977c0-1.96-0.998-3.121-2.431-3.121-0.816 0-1.506 0.363-2.014 0.78v4.844c0.562 0.381 1.234 0.671 1.96 0.653 1.47 0 2.486-1.089 2.486-3.157zM69.858 16.977c0 3.139-1.706 4.935-4.082 4.935-0.925 0-1.687-0.272-2.431-0.726v3.429h-2.159v-12.356h1.651l0.345 0.889c0.689-0.562 1.56-1.052 2.794-1.052 2.214 0 3.883 1.778 3.883 4.881zM67.79 16.977c0-1.96-0.998-3.121-2.431-3.121-0.816 0-1.506 0.363-2.014 0.78v4.844c0.562 0.381 1.234 0.671 1.96 0.653 1.47 0 2.486-1.089 2.486-3.157zM79.344 17.703h-6.605c0.109 1.56 1.161 2.631 2.849 2.631 0.889 0 1.905-0.29 2.812-0.798l0.581 1.397c-1.070 0.635-2.359 0.98-3.574 0.98-2.776 0-4.681-1.706-4.681-4.863 0-3.012 1.851-4.99 4.355-4.99 2.631 0 4.264 2.050 4.264 5.080v0.562zM75.062 13.675c-1.306 0-2.195 1.107-2.322 2.704h4.609c-0.127-1.597-0.962-2.704-2.286-2.704zM82.752 21.749h-2.159v-13.173h2.159v13.173zM86.777 21.749h-2.159v-13.173h2.159v13.173zM97.134 16.996c0 3.012-1.941 4.953-4.499 4.953-2.595 0-4.5-1.923-4.5-4.935s1.942-4.953 4.518-4.953c2.558 0 4.482 1.923 4.482 4.935zM95.138 17.014c0-1.869-1.034-3.175-2.503-3.175-1.488 0-2.504 1.288-2.504 3.157s1.034 3.157 2.522 3.157c1.452 0 2.486-1.27 2.486-3.139z"></path>
<path fill="#fff" style="fill: var(--color1, #fff)" d="M15.934 0.442l10.986 6.343c1.021 0.589 1.65 1.678 1.65 2.857v12.686c0 1.179-0.629 2.268-1.65 2.857l-10.986 6.343c-1.021 0.589-2.278 0.589-3.299 0l-10.986-6.343c-1.021-0.589-1.649-1.678-1.649-2.857v-12.686c0-1.179 0.629-2.268 1.649-2.857l10.986-6.343c1.021-0.589 2.278-0.589 3.299 0zM14.285 11.036l-4.286 2.474v4.948l4.286 2.474 4.286-2.474v-4.948l-4.286-2.474z"></path>
</symbol>
<symbol id="icon-reg-sity-1" viewBox="0 0 26 32">
<path fill="#0a8bfe" style="fill: var(--color2, #0a8bfe)" d="M25.303 22.362h-0.429v-1.242l0.853-5.908c0.009-0.060 0.004-0.121-0.013-0.18s-0.047-0.112-0.087-0.158c-0.040-0.046-0.090-0.083-0.146-0.108s-0.117-0.038-0.178-0.038h-0.858c-1.352-0.004-2.659 0.481-3.675 1.363l1.094-5.953c0.011-0.061 0.009-0.124-0.007-0.184s-0.045-0.116-0.085-0.164c-0.040-0.048-0.091-0.086-0.148-0.112s-0.119-0.040-0.182-0.040h-0.858c-1.373-0.003-2.719 0.381-3.88 1.107-0.835-1.133-1.929-2.054-3.193-2.688s-2.661-0.965-4.078-0.963h-0.858c-0.061 0-0.122 0.013-0.178 0.038s-0.106 0.062-0.146 0.108c-0.040 0.046-0.070 0.1-0.087 0.158s-0.022 0.12-0.013 0.18l0.459 3.176c-1.165-0.728-2.515-1.115-3.894-1.115h-0.858c-0.063 0-0.125 0.014-0.182 0.040s-0.107 0.065-0.147 0.112c-0.040 0.048-0.069 0.104-0.085 0.164s-0.018 0.123-0.007 0.184l0.591 3.217c-0.605-0.214-1.242-0.324-1.885-0.324h-1.715c-0.066 0-0.132 0.015-0.191 0.045s-0.111 0.072-0.151 0.124-0.067 0.113-0.079 0.178c-0.012 0.065-0.009 0.131 0.009 0.194l1.559 5.397h-0.289c-0.114 0-0.223 0.045-0.303 0.124s-0.126 0.187-0.126 0.3v2.969h-0.429c-0.114 0-0.223 0.045-0.303 0.124s-0.126 0.187-0.126 0.3v1.697c0 0.113 0.045 0.22 0.126 0.3s0.19 0.124 0.303 0.124h24.874c0.114 0 0.223-0.045 0.303-0.124s0.126-0.187 0.126-0.3v-1.697c0-0.113-0.045-0.22-0.126-0.3s-0.19-0.124-0.303-0.124zM18.012 22.362v-1.272c0-0.113-0.045-0.22-0.126-0.3s-0.189-0.124-0.303-0.124h-1.715c-0.114 0-0.223 0.045-0.303 0.124s-0.126 0.187-0.126 0.3v1.272h-1.715v-1.272c0-0.113-0.045-0.22-0.126-0.3s-0.19-0.124-0.303-0.124h-1.715c-0.114 0-0.223 0.045-0.303 0.124s-0.126 0.187-0.126 0.3v1.272h-4.54l-3.305-3.269c-0.040-0.039-0.087-0.071-0.139-0.092s-0.108-0.032-0.164-0.032h-0.429v-0.848h2.144c0.085 0 0.167-0.025 0.238-0.071l1.179-0.777h2.714l2.882 2.443c0.078 0.066 0.177 0.102 0.279 0.102h10.142l1.866 1.476v1.069h-6.004zM17.155 22.362h-0.858v-0.848h0.858v0.848zM12.866 22.362h-0.858v-0.848h0.858v0.848zM17.584 18.969h-1.715v-2.608l1.715 2.121v0.487zM15.010 18.969h-2.11l2.11-2.608v2.608zM24.445 15.576h0.363l-0.682 4.719-1.558-1.233c-0.076-0.060-0.171-0.093-0.268-0.093h-2.395c0.28-0.977 0.875-1.837 1.694-2.45s1.818-0.944 2.845-0.943zM20.929 10.486l-1.275 6.935c-0.281 0.465-0.491 0.968-0.622 1.494l-0.592-0.731v-2.184c0.002-1.601-0.434-3.172-1.262-4.548 1.021-0.634 2.202-0.968 3.407-0.966h0.344zM9.435 7.941c1.070-0 2.13 0.208 3.119 0.613s1.887 0.998 2.644 1.747c0.757 0.748 1.357 1.637 1.766 2.615s0.62 2.026 0.62 3.084v1.124l-1.809-2.237c-0.040-0.050-0.091-0.090-0.149-0.117s-0.121-0.042-0.186-0.042-0.128 0.014-0.186 0.042c-0.058 0.028-0.109 0.068-0.149 0.117l-3.154 3.899-1.496-1.268-1.383-9.577h0.363zM4.718 10.486c1.48 0 2.914 0.505 4.062 1.429l0.688 4.766-0.182-0.154c-0.078-0.066-0.177-0.102-0.279-0.102h-3.002c-0.085 0-0.167 0.025-0.238 0.071l-0.257 0.169-1.136-6.179h0.344zM2.144 13.879c0.716 0 1.424 0.161 2.068 0.471l0.52 2.827-0.144 0.095h-2.443c-0.054 0-0.108 0.010-0.158 0.030l-0.989-3.423h1.147zM1.715 19.817h1.109l2.573 2.545h-3.682v-2.545zM24.874 24.059h-24.016v-0.848h24.016v0.848z"></path>
</symbol>
<symbol id="icon-reg-sity-2" viewBox="0 0 32 32">
<path fill="#0a8bfe" style="fill: var(--color2, #0a8bfe)" d="M30.266 19.499v-3.079h-9.080v-9.749h-2.522v-2.053h-1.15l-1.009-3.079h-0.364v-1.539h-1.009v1.539h-0.364l-1.009 3.079h-1.15v2.053h-2.522v9.749h-9.080v3.079h-1.009v12.315h31.275v-12.315h-1.009zM18.16 26.683h-5.044v-3.592c0-1.415 1.131-2.566 2.522-2.566s2.522 1.151 2.522 2.566v3.592zM15.637 19.499c-1.947 0-3.531 1.612-3.531 3.592v3.592h-3.027v-6.406l6.558-4.765 6.558 4.765v6.406h-3.027v-3.592c0-1.98-1.584-3.592-3.531-3.592zM13.115 12.315c0-1.415 1.131-2.566 2.522-2.566s2.522 1.151 2.522 2.566c0 1.14-0.753 2.134-1.81 2.452l-0.712-0.517-0.712 0.517c-1.058-0.318-1.81-1.312-1.81-2.452zM23.204 20.525h7.062v6.158h-7.062v-6.158zM29.257 17.446v2.053h-6.396l-1.675-1.217v-0.835h8.071zM15.497 2.566h0.282l0.672 2.053h-1.627l0.672-2.053zM13.62 5.644h4.035v1.026h-4.035v-1.026zM12.611 7.697h7.566v9.852l-2.868-2.083c1.114-0.616 1.859-1.811 1.859-3.151 0-1.981-1.584-3.592-3.531-3.592s-3.531 1.611-3.531 3.592c0 1.34 0.744 2.535 1.858 3.15l-2.867 2.084v-9.852h1.513zM2.018 17.446h8.071v0.835l-1.675 1.217h-6.396v-2.053zM8.071 20.525v6.158h-7.062v-6.158h7.062zM4.035 30.788h-1.009v-1.026h1.009v1.026zM8.071 30.788h-1.009v-1.026h1.009v1.026zM12.106 30.788h-1.009v-1.026h1.009v1.026zM16.142 30.788h-1.009v-1.026h1.009v1.026zM20.177 30.788h-1.009v-1.026h1.009v1.026zM24.213 30.788h-1.009v-1.026h1.009v1.026zM28.248 30.788h-1.009v-1.026h1.009v1.026zM29.257 30.788v-2.053h-3.027v2.053h-1.009v-2.053h-3.027v2.053h-1.009v-2.053h-3.027v2.053h-1.009v-2.053h-3.027v2.053h-1.009v-2.053h-3.027v2.053h-1.009v-2.053h-3.027v2.053h-1.009v-2.053h-3.027v2.053h-1.009v-3.079h29.257v3.079h-1.009z"></path>
</symbol>
<symbol id="icon-reg-sity-3" viewBox="0 0 21 32">
<path fill="#0a8bfe" style="fill: var(--color2, #0a8bfe)" d="M4.494 0.66c0-0.21-0.17-0.379-0.379-0.379s-0.379 0.17-0.379 0.379v0.602h-0.639c-0.21 0-0.379 0.17-0.379 0.379s0.17 0.379 0.379 0.379h0.639v0.646l-2.466 6.799 0.048 0.017-0.003 0.005-0.519 0.75-0.001 0.116-0.112 11.686-0.68 0.711v8.944h20.778v-8.953l-0.566-0.545v-11.378l-0.036-0.077-0.829-1.759-0.028 0.036-2.386-6.895v-0.103h0.639c0.21 0 0.379-0.17 0.379-0.379s-0.17-0.379-0.379-0.379h-0.639v-0.602c0-0.21-0.17-0.379-0.379-0.379s-0.379 0.17-0.379 0.379v0.602h-0.639c-0.21 0-0.379 0.17-0.379 0.379s0.17 0.379 0.379 0.379h0.639v0.111l-2.166 7.301-0.888 1.59v7.475l-2.521-2.935v-0.789h0.638c0.21 0 0.379-0.17 0.379-0.379s-0.17-0.379-0.379-0.379h-0.638v-0.602c0-0.21-0.17-0.379-0.379-0.379s-0.379 0.17-0.379 0.379v0.602h-0.639c-0.21 0-0.379 0.17-0.379 0.379s0.17 0.379 0.379 0.379h0.639v0.794l-2.295 2.767v-1.387h-0.113v-6.463l-0.407-0.785 0.044-0.016-2.578-7.016v-0.646h0.638c0.21 0 0.379-0.17 0.379-0.379s-0.17-0.379-0.379-0.379h-0.638v-0.602zM16.584 3.427l2.183 6.306-0.554 0.712v1.060h-2.974v-0.687l-0.036-0.077-0.484-1.027 1.865-6.287zM6.22 9.561l-0.788 0.868v1.076h-2.861v-1.289l-0.54-0.625 2.086-5.752 2.102 5.722zM6.79 20.554v6.005h-6.027v-3.505l0.677-0.708 0.001-0.15 0.016-1.643h5.22v0.018l0.015-0.018h0.098zM0.762 30.936v-3.617h6.027v3.617h-0.825v-0.643c0-1.084-0.879-1.963-1.963-1.963s-1.963 0.879-1.963 1.963v0.643h-1.277zM5.206 30.936h-2.408v-0.643c0-0.665 0.539-1.204 1.204-1.204s1.204 0.539 1.204 1.204v0.643zM7.548 30.936v-3.617h5.575v3.617h-0.825v-0.054c0-1.009-0.511-1.949-1.358-2.497-0.331-0.214-0.755-0.219-1.090-0.017-0.901 0.542-1.465 1.516-1.477 2.568h-0.825zM9.132 30.936c0.013-0.784 0.434-1.512 1.109-1.918 0.089-0.054 0.202-0.052 0.287 0.004 0.631 0.408 1.012 1.109 1.012 1.86v0.054h-2.408zM13.882 30.936v-3.617h6.14v3.617h-1.39v-0.643c0-1.084-0.879-1.963-1.963-1.963s-1.963 0.879-1.963 1.963v0.643h-0.825zM17.874 30.293v0.643h-2.408v-0.643c0-0.665 0.539-1.204 1.204-1.204s1.204 0.539 1.204 1.204zM13.882 26.56v-6.005h5.575v1.964l0.566 0.545v3.496h-6.14zM7.548 26.56v-6.005h5.575v6.005h-5.575zM6.676 19.521v0.274h-5.213l0.089-9.318 0.108-0.156 0.153 0.177v1.765h4.378v-1.542l0.327-0.36 0.159 0.306v8.853zM13.123 19.796h-5.575v-0.274l2.679-3.23 2.896 3.371v0.134zM19.457 19.796h-5.575v-2.849h-0v-5.726l0.384-0.687 0.215 0.456v1.276h4.491v-1.558l0.219-0.282 0.266 0.564v8.807zM3.25 14.283v4.145c0 0.21-0.17 0.379-0.379 0.379s-0.379-0.17-0.379-0.379v-4.145c0-0.21 0.17-0.379 0.379-0.379s0.379 0.17 0.379 0.379zM5.286 14.283v4.145c0 0.21-0.17 0.379-0.379 0.379s-0.379-0.17-0.379-0.379v-4.145c0-0.21 0.17-0.379 0.379-0.379s0.379 0.17 0.379 0.379zM15.539 13.904c-0.21 0-0.379 0.17-0.379 0.379v4.145c0 0.21 0.17 0.379 0.379 0.379s0.379-0.17 0.379-0.379v-4.145c0-0.21-0.17-0.379-0.379-0.379zM17.954 14.283v4.145c0 0.21-0.17 0.379-0.379 0.379s-0.379-0.17-0.379-0.379v-4.145c0-0.21 0.17-0.379 0.379-0.379s0.379 0.17 0.379 0.379zM17.026 21.192l-0.259-0.216-0.846 0.8c-0.775 0.733-1.214 1.752-1.214 2.818v0.977h4.152v-1.035c0-1.15-0.511-2.241-1.394-2.978l-0.439-0.366zM16.442 22.328l0.357-0.337 0.18 0.15c0.71 0.593 1.121 1.47 1.121 2.395v0.277h-2.634v-0.219c0-0.858 0.353-1.678 0.976-2.267zM3.873 20.976l0.698 0.582c0.883 0.737 1.394 1.828 1.394 2.978v1.035h-4.152v-0.977c0-1.066 0.439-2.086 1.214-2.818l0.846-0.8zM3.905 21.991l-0.357 0.337c-0.623 0.589-0.976 1.409-0.976 2.267v0.219h2.634v-0.277c0-0.925-0.411-1.803-1.121-2.395l-0.18-0.15zM9.799 21.694c0.136-0.032 0.277-0.049 0.424-0.049 0.182 0 0.357 0.026 0.521 0.074l-0.325 0.493c-0.063-0.012-0.129-0.018-0.195-0.018-0.031 0-0.061 0.001-0.091 0.004l-0.333-0.505zM11.245 22.959c-0.036-0.13-0.097-0.249-0.177-0.353l0.344-0.521c0.264 0.229 0.454 0.533 0.536 0.874h-0.703zM11.947 23.718c-0.077 0.321-0.25 0.61-0.49 0.834l-0.43-0.651c0.049-0.056 0.092-0.117 0.129-0.183h0.791zM10.223 24.263c0.044 0 0.087-0.003 0.13-0.008l0.451 0.684c-0.181 0.060-0.377 0.093-0.581 0.093-0.169 0-0.332-0.023-0.487-0.065l0.465-0.705c0.007 0 0.014 0 0.022 0zM9.485 23.97l-0.425 0.645c-0.277-0.232-0.477-0.545-0.562-0.898h0.792c0.052 0.094 0.118 0.179 0.196 0.253zM9.201 22.959h-0.703c0.089-0.372 0.307-0.7 0.609-0.935l0.335 0.507c-0.112 0.119-0.196 0.265-0.241 0.427zM10.223 20.887c-1.383 0-2.528 1.085-2.528 2.452s1.145 2.452 2.528 2.452c1.383 0 2.528-1.085 2.528-2.452s-1.145-2.452-2.528-2.452zM10.223 22.954c0.178 0 0.299 0.136 0.299 0.275s-0.121 0.275-0.299 0.275c-0.178 0-0.299-0.136-0.299-0.275s0.121-0.275 0.299-0.275z"></path>
</symbol>
<symbol id="icon-reg-sity-4" viewBox="0 0 31 32">
<path fill="#0a8bfe" style="fill: var(--color2, #0a8bfe)" d="M29.654 28.25h0.617c0.356 0 0.644 0.28 0.644 0.625v2.5c0 0.345-0.288 0.625-0.644 0.625h-29.627c-0.356 0-0.644-0.28-0.644-0.625v-2.5c0-0.345 0.288-0.625 0.644-0.625h0.617v-11.062h-0.617c-0.356 0-0.644-0.28-0.644-0.625s0.288-0.625 0.644-0.625h0.617v-1.813c0-0.322 0.251-0.587 0.574-0.621-0.091-0.858 0.266-1.73 1.012-2.348l1.936-1.603c0.241-0.2 0.596-0.2 0.836-0l1.936 1.603c0.107 0.089 0.206 0.184 0.298 0.283v-0.802c0-0.345 0.288-0.625 0.644-0.625h0.521c0.248-2.426 1.925-4.451 4.201-5.268v-2.181c0-0.345 0.288-0.625 0.644-0.625h0.952v-1.312c0-0.345 0.288-0.625 0.644-0.625s0.644 0.28 0.644 0.625v1.312h0.952c0.355 0 0.644 0.28 0.644 0.625v2.181c2.275 0.817 3.952 2.842 4.201 5.268h0.521c0.356 0 0.644 0.28 0.644 0.625v0.802c0.091-0.099 0.19-0.194 0.298-0.283l1.936-1.603c0.241-0.2 0.595-0.2 0.836 0l1.935 1.603c0.746 0.618 1.103 1.49 1.012 2.348 0.323 0.034 0.574 0.299 0.574 0.621v1.813h0.617c0.356 0 0.644 0.28 0.644 0.625s-0.288 0.625-0.644 0.625h-0.617v11.062zM26.359 28.25h2.007v-11.062h-5.303v0.758c0.304 0.050 0.536 0.306 0.536 0.616s-0.232 0.565-0.536 0.615v9.073h2.007v-7.151c0-0.345 0.288-0.625 0.644-0.625s0.644 0.28 0.644 0.625v7.151zM19.634 25.151v3.099h2.141v-9.063h-12.635v9.063h2.141v-3.099h-0.153c-0.355 0-0.644-0.28-0.644-0.625s0.289-0.625 0.644-0.625h0.203c0.31-1.939 2.043-3.427 4.126-3.427s3.816 1.489 4.127 3.427h0.203c0.355 0 0.644 0.28 0.644 0.625s-0.289 0.625-0.644 0.625h-0.153zM12.643 23.901h5.63c-0.294-1.245-1.444-2.178-2.815-2.178s-2.521 0.932-2.815 2.178zM21.775 14.065v-2.804h-5.677l5.677 2.804zM13.387 15.71h-4.247v2.228h12.635v-2.228h-4.247c-0.275 0.856-1.099 1.479-2.071 1.479s-1.796-0.623-2.070-1.479zM14.577 15.084c0 0.471 0.395 0.854 0.88 0.854s0.88-0.383 0.88-0.854c0-0.471-0.395-0.854-0.88-0.854s-0.88 0.383-0.88 0.854zM17.528 14.46h2.205l-4.276-2.112-4.276 2.112h2.205c0.275-0.856 1.099-1.479 2.070-1.479s1.796 0.623 2.071 1.479zM23.063 15.7v0.239h5.303v-1.188h-4.868c0.063 0.097 0.101 0.211 0.101 0.335 0 0.309-0.232 0.565-0.536 0.615zM25.715 10.85l-1.518 1.257c-0.455 0.377-0.65 0.896-0.547 1.393h4.13c0.103-0.498-0.092-1.017-0.547-1.393l-1.517-1.257zM16.41 3.187h-1.904v1.237c0.311-0.045 0.628-0.068 0.952-0.068s0.641 0.023 0.952 0.068v-1.237zM20.601 10.011c-0.318-2.48-2.503-4.406-5.143-4.406s-4.825 1.926-5.143 4.407c0.199 0.003 0.377 0.093 0.493 0.234h3.859c0.118-0.143 0.299-0.234 0.502-0.234h5.432zM14.673 11.035h-3.871c-0.118 0.139-0.297 0.227-0.497 0.227h-1.165v2.804l5.643-2.929c-0.041-0.030-0.078-0.064-0.11-0.101zM5.201 10.85l-1.518 1.257c-0.455 0.377-0.65 0.896-0.547 1.393h4.129c0.103-0.498-0.092-1.017-0.547-1.393l-1.517-1.257zM7.417 14.75h-4.868v1.188h5.303v-0.239c-0.304-0.050-0.535-0.306-0.535-0.615 0-0.123 0.037-0.238 0.101-0.335zM7.852 17.188h-5.303v11.062h2.007v-7.151c0-0.345 0.288-0.625 0.644-0.625s0.644 0.28 0.644 0.625v7.151h2.007v-9.073c-0.304-0.050-0.535-0.306-0.535-0.615s0.231-0.565 0.535-0.616v-0.758zM1.288 30.75h28.339v-1.25h-11.594c-0.355 0-0.644-0.28-0.644-0.625s0.289-0.625 0.644-0.625h0.312v-3.099h-5.777v3.099h0.312c0.356 0 0.644 0.28 0.644 0.625s-0.288 0.625-0.644 0.625h-11.593v1.25z"></path>
</symbol>
<symbol id="icon-reg-sity-5" viewBox="0 0 30 32">
<path fill="#0a8bfe" style="fill: var(--color2, #0a8bfe)" d="M25.083 0.315l0.557 5.394 0.117-0.407 0.473 0.313c0.019 0.013 0.046 0.031 0.081 0.054 0.069 0.046 0.166 0.111 0.278 0.188 0.224 0.152 0.511 0.351 0.759 0.531 0.254 0.185 0.53 0.44 0.735 0.64 0.104 0.102 0.194 0.193 0.257 0.258 0.032 0.033 0.057 0.059 0.075 0.078l0.020 0.022 0.006 0.006 0.002 0.002 0 0 0 0c0 0 0 0-0.286 0.266l0.286-0.266 0.104 0.112v2.916l0.346 0.261v3.566l0.346 0.261v17.284l-18.893 0.001v-22.961h2.945v-4.231l1.44-1.179 0.244 0.18-0.232 0.314c0.232-0.314 0.232-0.314 0.232-0.314l0.022 0.017c0.014 0.011 0.035 0.026 0.061 0.046 0.053 0.040 0.129 0.098 0.223 0.171 0.187 0.145 0.445 0.349 0.726 0.585 0.555 0.464 1.235 1.075 1.642 1.607 0.456 0.595 0.797 1.379 1.020 1.993 0.113 0.311 0.2 0.586 0.258 0.784 0.029 0.099 0.051 0.179 0.066 0.235 0.007 0.028 0.013 0.050 0.017 0.065l0.004 0.018 0.001 0.005 0 0.001 0 0 0 0c0 0 0 0-0.379 0.094l0.379-0.094 0.011 0.046v20.533h0.888v-15.246l0.346-0.174v-3.486l0.346-0.348v-0.55h-0.051v-0.78h0.051v-1.549l0.124-0.116 0.266 0.285c-0.266-0.285-0.266-0.285-0.266-0.286l0-0 0-0 0.033-0.031c0.022-0.020 0.053-0.048 0.092-0.084 0.078-0.071 0.188-0.168 0.315-0.278 0.252-0.217 0.583-0.49 0.875-0.688 0.25-0.169 0.532-0.364 0.752-0.517 0.11-0.076 0.204-0.142 0.271-0.189l0.521-0.365 0.239 0.65 0.471-5.638 0.777-0.008zM21.391 9.907v0.746h6.377v-0.746h-6.377zM27.768 9.127v-1.31c-0.058-0.060-0.138-0.141-0.229-0.23-0.199-0.194-0.442-0.417-0.649-0.568-0.217-0.158-0.468-0.332-0.678-0.475l-0.378 1.311-0.763-0.068-0.335-3.241-0.27 3.233-0.755 0.102-0.498-1.352c-0.216 0.149-0.484 0.334-0.724 0.497-0.253 0.172-0.557 0.421-0.804 0.633-0.118 0.102-0.221 0.193-0.295 0.26v1.207h6.377zM21.044 11.433v1.003h7.070v-1.003h-7.070zM21.044 13.217v0.873h7.070v-0.873h-7.070zM20.852 14.87l-0.153 0.077v0.925h7.762v-0.971l-0.041-0.031h-7.568zM20.698 16.652v1.002h7.762v-1.002h-7.762zM20.698 18.434v1.002h7.762v-1.002h-7.762zM20.698 20.216v1.002h7.762v-1.002h-7.762zM20.698 21.998v1h7.762v-1h-7.762zM20.698 23.777v1.003h7.762v-1.003h-7.762zM20.698 25.561v1.002h7.762v-1.002h-7.762zM20.698 27.343v3.673h2.235v-2.8h3.041v2.8h2.486v-3.673h-7.762zM23.713 28.996v2.019h1.481v-2.019h-1.481zM12.727 29.742h4.132v1.274h2.808v-0.525h-1.417v-21.217l-0.008-0.031c-0.013-0.050-0.034-0.124-0.061-0.217-0.054-0.186-0.136-0.444-0.242-0.736-0.216-0.591-0.524-1.286-0.907-1.786-0.35-0.457-0.969-1.020-1.523-1.483-0.273-0.228-0.523-0.426-0.704-0.567l-0.051-0.040-0.682 0.558v5.163h-1.488v-0.522h-1.456v21.401h1.6v-1.274zM13.507 30.522v0.493h2.571v-0.493h-2.571zM2.563 7.599h5.637l1.192 0.79v3.028h0v2.053h-0v0.747h0v2.053h-0v0.748h0v2.053h-0v0.746h0v2.053h-0v0.746h0v2.053h-0v0.748h0v2.053h-0v0.745h0v2.053h-0v1.525h-9.059v-2.956h0.96c-0.028-0.166-0.063-0.372-0.102-0.613-0.109-0.668-0.252-1.602-0.391-2.666-0.277-2.121-0.54-4.781-0.467-6.876 0.115-3.293 0.579-5.995 1.015-7.876 0.218-0.941 0.429-1.676 0.587-2.179 0.079-0.251 0.144-0.444 0.19-0.575 0.023-0.065 0.041-0.115 0.054-0.15 0.006-0.017 0.011-0.030 0.015-0.039l0.004-0.011 0.001-0.003 0-0.001 0-0c0-0 0-0 0.364 0.14l-0.364-0.14 0.096-0.25h0.268zM8.612 28.216v-0.745h-5.025v-2.053h5.025v-0.748h-5.025v-2.053h5.025v-0.746h-5.025v-2.053h5.025v-0.746h-5.025v-2.053h5.025v-0.748h-5.025v-2.053h5.025v-0.747h-5.025v-2.053h5.025v-2.609l-0.647-0.429h-5.127c-0.041 0.119-0.095 0.28-0.158 0.481-0.152 0.485-0.358 1.202-0.571 2.122-0.427 1.84-0.883 4.492-0.996 7.727-0.071 2.028 0.184 4.634 0.46 6.748 0.138 1.054 0.28 1.98 0.388 2.642 0.054 0.331 0.099 0.596 0.131 0.778 0.016 0.091 0.028 0.161 0.037 0.209l0.010 0.054 0.002 0.013 0.001 0.003 0 0.001 0 0 0.085 0.461h-1.113v1.396h7.499v-0.745h-5.025v-2.053h5.025zM8.612 28.996h-4.245v0.493h4.245v-0.493zM8.612 26.69v-0.493h-4.245v0.493h4.245zM8.612 23.396h-4.245v0.493h4.245v-0.493zM8.612 21.090v-0.493h-4.245v0.493h4.245zM8.612 18.291v-0.493h-4.245v0.493h4.245zM8.612 14.997h-4.245v0.493h4.245v-0.493zM8.612 12.69v-0.493h-4.245v0.493h4.245zM13.117 14.471h-0.39v2.053h4.132v-2.053h-3.742zM13.507 15.744v-0.493h2.571v0.493h-2.571zM12.727 11.417h4.132v2.053h-4.132v-2.053zM13.507 12.197v0.493h2.571v-0.493h-2.571zM13.117 17.526h-0.39v2.053h4.132v-2.053h-3.742zM13.507 18.799v-0.493h2.571v0.493h-2.571zM12.727 20.581h4.132v2.053h-4.132v-2.053zM13.507 21.361v0.493h2.571v-0.493h-2.571zM12.727 23.634h4.132v2.053h-4.132v-2.053zM13.507 24.414v0.493h2.571v-0.493h-2.571zM13.117 26.688h-0.39v2.053h4.132v-2.053h-3.742zM13.507 27.961v-0.493h2.571v0.493h-2.571z"></path>
</symbol>
<symbol id="icon-reg-sity-6" viewBox="0 0 49 32">
<path fill="#fff" style="fill: var(--color1, #fff)" d="M1.28 1.024h46.72v29.44h-46.72v-29.44z"></path>
<path fill="#fff" style="fill: var(--color1, #fff)" d="M44.928 6.784l-0.18 0.48-0.721-1.92 0.18-0.48 0.721 1.92z"></path>
<path fill="#fff" style="fill: var(--color1, #fff)" d="M44.928 6.784l-0.721 1.92-0.18-0.48 0.721-1.92 0.18 0.48z"></path>
<path fill="#fff" style="fill: var(--color1, #fff)" d="M42.624 7.071h2.167v-0.679h-2.167v0.679z"></path>
<path fill="#737373" style="fill: var(--color3, #737373)" d="M4.752 6.94h-0.572l-0.128 0.356h-0.186l0.521-1.365h0.157l0.522 1.365h-0.185l-0.13-0.356zM4.235 6.792h0.464l-0.232-0.638-0.232 0.638zM6.081 6.8c0 0.154-0.035 0.279-0.106 0.373s-0.166 0.142-0.287 0.142c-0.123 0-0.22-0.039-0.291-0.117v0.488h-0.173v-1.404h0.158l0.008 0.112c0.071-0.088 0.169-0.131 0.294-0.131 0.122 0 0.218 0.046 0.289 0.138s0.107 0.22 0.107 0.383v0.016zM5.907 6.78c0-0.114-0.024-0.205-0.073-0.271s-0.116-0.099-0.201-0.099c-0.105 0-0.184 0.047-0.236 0.14v0.485c0.052 0.093 0.131 0.139 0.238 0.139 0.083 0 0.149-0.033 0.198-0.098s0.074-0.164 0.074-0.294zM7.159 6.8c0 0.154-0.035 0.279-0.106 0.373s-0.166 0.142-0.287 0.142c-0.123 0-0.22-0.039-0.291-0.117v0.488h-0.173v-1.404h0.158l0.008 0.112c0.071-0.088 0.169-0.131 0.294-0.131 0.122 0 0.218 0.046 0.289 0.138s0.107 0.22 0.107 0.383v0.016zM6.985 6.78c0-0.114-0.024-0.205-0.073-0.271s-0.116-0.099-0.201-0.099c-0.105 0-0.184 0.047-0.236 0.14v0.485c0.052 0.093 0.131 0.139 0.238 0.139 0.083 0 0.149-0.033 0.198-0.098s0.074-0.164 0.074-0.294zM7.883 7.296v-1.365h0.385c0.119 0 0.224 0.026 0.315 0.079s0.162 0.127 0.211 0.224c0.050 0.097 0.075 0.208 0.076 0.334v0.087c0 0.129-0.025 0.242-0.075 0.338s-0.12 0.171-0.213 0.223c-0.092 0.052-0.199 0.078-0.322 0.080h-0.378zM8.063 6.079v1.070h0.189c0.139 0 0.247-0.043 0.323-0.129s0.116-0.209 0.116-0.368v-0.080c0-0.155-0.037-0.275-0.11-0.361s-0.176-0.13-0.309-0.131h-0.21zM9.537 7.315c-0.137 0-0.249-0.045-0.336-0.135s-0.129-0.212-0.129-0.363v-0.032c0-0.101 0.019-0.19 0.057-0.269s0.092-0.141 0.161-0.186c0.069-0.045 0.144-0.067 0.225-0.067 0.132 0 0.234 0.043 0.307 0.13s0.11 0.211 0.11 0.373v0.072h-0.687c0.002 0.1 0.032 0.181 0.087 0.243s0.127 0.092 0.214 0.092c0.061 0 0.113-0.013 0.156-0.037s0.080-0.058 0.112-0.099l0.106 0.082c-0.085 0.131-0.213 0.196-0.383 0.196zM9.516 6.405c-0.070 0-0.129 0.026-0.176 0.077s-0.077 0.122-0.088 0.214h0.508v-0.013c-0.005-0.088-0.029-0.156-0.071-0.204s-0.1-0.073-0.172-0.073zM10.456 7.061l0.251-0.779h0.177l-0.364 1.014h-0.132l-0.367-1.014h0.177l0.258 0.779zM11.459 7.315c-0.137 0-0.249-0.045-0.336-0.135s-0.129-0.212-0.129-0.363v-0.032c0-0.101 0.019-0.19 0.057-0.269s0.092-0.141 0.161-0.186c0.069-0.045 0.144-0.067 0.225-0.067 0.132 0 0.234 0.043 0.307 0.13s0.11 0.211 0.11 0.373v0.072h-0.687c0.002 0.1 0.032 0.181 0.087 0.243s0.127 0.092 0.214 0.092c0.061 0 0.113-0.013 0.156-0.037s0.080-0.058 0.112-0.099l0.106 0.082c-0.085 0.131-0.213 0.196-0.383 0.196zM11.438 6.405c-0.070 0-0.129 0.026-0.176 0.077s-0.077 0.122-0.088 0.214h0.508v-0.013c-0.005-0.088-0.029-0.156-0.071-0.204s-0.1-0.073-0.172-0.073zM12.245 7.296h-0.173v-1.44h0.173v1.44zM12.477 6.779c0-0.099 0.019-0.189 0.058-0.268s0.094-0.141 0.163-0.184c0.070-0.043 0.15-0.065 0.239-0.065 0.138 0 0.25 0.048 0.335 0.143s0.128 0.223 0.128 0.382v0.012c0 0.099-0.019 0.188-0.057 0.266s-0.092 0.139-0.162 0.183c-0.070 0.044-0.151 0.066-0.242 0.066-0.137 0-0.249-0.048-0.335-0.143s-0.127-0.222-0.127-0.38v-0.012zM12.652 6.8c0 0.112 0.026 0.203 0.078 0.271s0.122 0.102 0.21 0.102c0.088 0 0.158-0.034 0.21-0.103s0.078-0.166 0.078-0.291c0-0.111-0.027-0.201-0.080-0.27s-0.123-0.104-0.21-0.104c-0.086 0-0.155 0.034-0.207 0.102s-0.079 0.166-0.079 0.293zM14.475 6.8c0 0.154-0.035 0.279-0.106 0.373s-0.166 0.142-0.287 0.142c-0.123 0-0.22-0.039-0.291-0.117v0.488h-0.173v-1.404h0.158l0.008 0.112c0.071-0.088 0.169-0.131 0.294-0.131 0.122 0 0.218 0.046 0.289 0.138s0.107 0.22 0.107 0.383v0.016zM14.302 6.78c0-0.114-0.024-0.205-0.073-0.271s-0.116-0.099-0.201-0.099c-0.105 0-0.184 0.047-0.236 0.14v0.485c0.052 0.093 0.131 0.139 0.238 0.139 0.083 0 0.149-0.033 0.198-0.098s0.074-0.164 0.074-0.294zM14.859 6.282l0.005 0.112c0.075-0.088 0.175-0.131 0.301-0.131 0.142 0 0.238 0.054 0.29 0.163 0.034-0.049 0.077-0.088 0.131-0.118s0.118-0.045 0.192-0.045c0.222 0 0.336 0.118 0.339 0.353v0.68h-0.173v-0.669c0-0.072-0.017-0.127-0.050-0.162s-0.089-0.054-0.167-0.054c-0.064 0-0.118 0.019-0.16 0.058s-0.067 0.090-0.074 0.155v0.673h-0.174v-0.665c0-0.147-0.072-0.221-0.217-0.221-0.114 0-0.192 0.048-0.233 0.145v0.741h-0.173v-1.014h0.164zM16.801 7.315c-0.137 0-0.249-0.045-0.336-0.135s-0.129-0.212-0.129-0.363v-0.032c0-0.101 0.019-0.19 0.057-0.269s0.093-0.141 0.161-0.186c0.069-0.045 0.144-0.067 0.225-0.067 0.132 0 0.234 0.043 0.307 0.13s0.11 0.211 0.11 0.373v0.072h-0.687c0.003 0.1 0.032 0.181 0.087 0.243s0.128 0.092 0.214 0.092c0.061 0 0.113-0.013 0.156-0.037s0.080-0.058 0.112-0.099l0.106 0.082c-0.085 0.131-0.213 0.196-0.383 0.196zM16.779 6.405c-0.070 0-0.129 0.026-0.176 0.077s-0.077 0.122-0.088 0.214h0.508v-0.013c-0.005-0.088-0.029-0.156-0.071-0.204s-0.1-0.073-0.173-0.073zM17.562 6.282l0.006 0.128c0.077-0.098 0.179-0.146 0.304-0.146 0.214 0 0.322 0.121 0.324 0.363v0.67h-0.173v-0.671c-0.001-0.073-0.018-0.127-0.051-0.162s-0.083-0.053-0.153-0.053c-0.056 0-0.106 0.015-0.148 0.045s-0.076 0.069-0.099 0.118v0.723h-0.173v-1.014h0.164zM18.693 6.036v0.246h0.189v0.134h-0.189v0.629c0 0.041 0.008 0.071 0.025 0.092s0.046 0.030 0.086 0.030c0.020 0 0.047-0.004 0.083-0.011v0.141c-0.046 0.013-0.090 0.019-0.133 0.019-0.078 0-0.136-0.023-0.175-0.070s-0.059-0.113-0.059-0.2v-0.629h-0.185v-0.134h0.185v-0.246h0.173z"></path>
<path fill="#000" style="fill: var(--color4, #000)" d="M5.39 10.815c-0.022 0.193-0.094 0.341-0.214 0.446s-0.278 0.156-0.476 0.156c-0.215 0-0.388-0.077-0.518-0.231s-0.194-0.36-0.194-0.619v-0.175c0-0.169 0.030-0.318 0.090-0.446s0.147-0.227 0.258-0.295c0.111-0.069 0.239-0.104 0.385-0.104 0.193 0 0.348 0.054 0.465 0.162s0.185 0.257 0.204 0.447h-0.241c-0.021-0.145-0.066-0.25-0.136-0.315s-0.166-0.098-0.291-0.098c-0.153 0-0.274 0.057-0.361 0.17s-0.13 0.275-0.13 0.484v0.176c0 0.197 0.041 0.355 0.124 0.471s0.198 0.175 0.346 0.175c0.133 0 0.235-0.030 0.306-0.090s0.119-0.166 0.143-0.316h0.241zM6.518 11.392c-0.013-0.027-0.024-0.074-0.032-0.143-0.107 0.112-0.236 0.168-0.385 0.168-0.133 0-0.243-0.037-0.329-0.113s-0.128-0.172-0.128-0.287c0-0.141 0.053-0.25 0.16-0.328s0.258-0.117 0.452-0.117h0.225v-0.106c0-0.081-0.024-0.145-0.072-0.193s-0.12-0.072-0.214-0.072c-0.082 0-0.152 0.021-0.207 0.063s-0.084 0.092-0.084 0.151h-0.232c0-0.068 0.024-0.133 0.071-0.195s0.113-0.113 0.195-0.15c0.082-0.037 0.173-0.055 0.271-0.055 0.156 0 0.278 0.039 0.366 0.117s0.134 0.185 0.138 0.321v0.623c0 0.124 0.016 0.223 0.048 0.296v0.020h-0.242zM6.134 11.216c0.072 0 0.141-0.019 0.206-0.056s0.112-0.086 0.141-0.146v-0.277h-0.181c-0.283 0-0.425 0.083-0.425 0.249 0 0.072 0.024 0.129 0.072 0.17s0.11 0.061 0.186 0.061zM7.294 10.040l0.008 0.17c0.103-0.13 0.238-0.195 0.405-0.195 0.286 0 0.43 0.161 0.432 0.484v0.894h-0.231v-0.895c-0.001-0.098-0.023-0.17-0.067-0.216s-0.111-0.070-0.204-0.070c-0.075 0-0.141 0.020-0.197 0.060s-0.101 0.092-0.133 0.158v0.964h-0.231v-1.353h0.219zM9.633 10.731c0 0.207-0.047 0.373-0.143 0.499s-0.223 0.188-0.383 0.188c-0.171 0-0.303-0.060-0.396-0.181l-0.011 0.156h-0.213v-1.92h0.231v0.716c0.093-0.116 0.222-0.174 0.386-0.174s0.293 0.062 0.386 0.186c0.094 0.124 0.141 0.294 0.141 0.51v0.020zM9.401 10.704c0-0.158-0.030-0.279-0.091-0.365s-0.148-0.129-0.262-0.129c-0.152 0-0.262 0.071-0.329 0.213v0.585c0.071 0.142 0.181 0.213 0.331 0.213 0.111 0 0.197-0.043 0.259-0.129s0.092-0.215 0.092-0.387zM10.486 11.417c-0.183 0-0.332-0.060-0.447-0.18s-0.172-0.282-0.172-0.484v-0.043c0-0.134 0.025-0.254 0.076-0.359s0.123-0.188 0.215-0.248c0.092-0.060 0.193-0.090 0.3-0.090 0.176 0 0.313 0.058 0.41 0.174s0.146 0.282 0.146 0.498v0.096h-0.916c0.003 0.133 0.042 0.241 0.116 0.324s0.17 0.123 0.285 0.123c0.082 0 0.151-0.017 0.207-0.050s0.106-0.078 0.149-0.133l0.141 0.11c-0.113 0.174-0.283 0.261-0.51 0.261zM10.457 10.204c-0.093 0-0.172 0.034-0.235 0.102s-0.102 0.162-0.117 0.285h0.678v-0.018c-0.007-0.117-0.038-0.208-0.095-0.273s-0.133-0.098-0.23-0.098zM11.936 10.247c-0.035-0.006-0.073-0.009-0.114-0.009-0.152 0-0.255 0.065-0.309 0.194v0.96h-0.231v-1.352h0.225l0.004 0.156c0.076-0.121 0.183-0.181 0.322-0.181 0.045 0 0.079 0.006 0.102 0.018v0.215zM12.804 10.247c-0.035-0.006-0.073-0.009-0.114-0.009-0.152 0-0.255 0.065-0.309 0.194v0.96h-0.231v-1.352h0.225l0.004 0.156c0.076-0.121 0.183-0.181 0.322-0.181 0.045 0 0.079 0.006 0.102 0.018v0.215zM13.803 11.392c-0.013-0.027-0.024-0.074-0.033-0.143-0.108 0.112-0.236 0.168-0.385 0.168-0.133 0-0.243-0.037-0.329-0.113s-0.127-0.172-0.127-0.287c0-0.141 0.053-0.25 0.16-0.328s0.258-0.117 0.452-0.117h0.225v-0.106c0-0.081-0.024-0.145-0.073-0.193s-0.12-0.072-0.214-0.072c-0.082 0-0.152 0.021-0.207 0.063s-0.084 0.092-0.084 0.151h-0.232c0-0.068 0.024-0.133 0.071-0.195s0.113-0.113 0.195-0.15c0.082-0.037 0.173-0.055 0.271-0.055 0.156 0 0.278 0.039 0.366 0.117s0.134 0.185 0.137 0.321v0.623c0 0.124 0.016 0.223 0.048 0.296v0.020h-0.243zM13.419 11.216c0.072 0 0.141-0.019 0.206-0.056s0.112-0.086 0.141-0.146v-0.277h-0.181c-0.283 0-0.425 0.083-0.425 0.249 0 0.072 0.024 0.129 0.073 0.17s0.11 0.061 0.186 0.061z"></path>
<path fill="#0a8bfe" style="fill: var(--color2, #0a8bfe)" d="M44.67 20.493h-3.024l-2.663-1.962v-3.679c0-0.144-0.115-0.26-0.258-0.26s-0.258 0.116-0.258 0.26v0.52h-0.774v-0.52c0-0.144-0.115-0.26-0.258-0.26s-0.258 0.116-0.258 0.26v2.006c0 0.010 0.005 0.019 0.006 0.029-0.001 0.010-0.006 0.019-0.006 0.029v1.615l-2.663 1.962h-3.024c-0.143 0-0.258 0.116-0.258 0.26v3.642c0 0.144 0.115 0.26 0.258 0.26h13.18c0.143 0 0.258-0.116 0.258-0.26v-3.642c0-0.144-0.115-0.26-0.258-0.26zM37.679 20.493h-0.373l0.381-1.765c0.001-0.006-0.001-0.011 0-0.017 0.003-0.015 0.005-0.031 0.005-0.047v-1.487h0.774v1.487c0 0.022 0.003 0.044 0.009 0.065 0.001 0.005-0 0.010 0.001 0.016l0.501 1.749h-0.498c-0.142 0-0.258 0.116-0.258 0.26v0.78h-0.285v-0.78c-0-0.144-0.115-0.26-0.258-0.26zM35.388 20.493l1.653-1.217-0.262 1.217h-1.39zM39.515 20.493l-0.336-1.173 1.593 1.173h-1.257zM38.467 15.893v0.763h-0.774v-0.763h0.774zM31.748 21.013h2.592v3.121h-0.258v-1.301c0-0.144-0.115-0.26-0.258-0.26s-0.258 0.116-0.258 0.26v1.301h-0.258v-1.301c0-0.144-0.115-0.26-0.258-0.26s-0.258 0.116-0.258 0.26v1.301h-0.258v-1.301c0-0.144-0.115-0.26-0.258-0.26s-0.258 0.116-0.258 0.26v1.301c-0.909 0 0.398 0-0.271 0v-3.121zM34.856 21.013h2.566v0.78c0 0.144 0.115 0.26 0.258 0.26h0.801c0.143 0 0.258-0.116 0.258-0.26v-0.78h2.566v3.121h-0.258v-2.601c0-0.144-0.115-0.26-0.258-0.26s-0.258 0.116-0.258 0.26v2.601h-0.258v-2.601c0-0.144-0.115-0.26-0.258-0.26s-0.258 0.116-0.258 0.26v2.601h-0.258v-2.601c0-0.144-0.115-0.26-0.258-0.26s-0.258 0.116-0.258 0.26v2.601h-0.258v-1.301c0-0.144-0.115-0.26-0.258-0.26s-0.258 0.116-0.258 0.26v1.301h-0.258v-1.301c0-0.144-0.115-0.26-0.258-0.26s-0.258 0.116-0.258 0.26v1.301h-0.258v-2.601c0-0.144-0.115-0.26-0.258-0.26s-0.258 0.116-0.258 0.26v2.601h-0.258v-2.601c0-0.144-0.115-0.26-0.258-0.26s-0.258 0.116-0.258 0.26v2.601h-0.258v-2.601c0-0.144-0.115-0.26-0.258-0.26s-0.258 0.116-0.258 0.26v2.601h-0.258v-3.121zM44.412 24.134c-0.881 0 0.388 0-0.271 0v-1.301c0-0.144-0.115-0.26-0.258-0.26s-0.258 0.116-0.258 0.26v1.301h-0.258v-1.301c0-0.144-0.115-0.26-0.258-0.26s-0.258 0.116-0.258 0.26v1.301h-0.258v-1.301c0-0.144-0.115-0.26-0.258-0.26s-0.258 0.116-0.258 0.26v1.301h-0.258v-3.121h2.592v3.121z"></path>
</symbol>
<symbol id="icon-value-1" viewBox="0 0 165 32">
<path fill="#323232" style="fill: var(--color5, #323232)" d="M113.209 27.094c-1.596 0-3.168-0.473-4.266-1.544l0.923-1.17c1.047 0.872 2.17 1.22 3.318 1.22 1.821 0 3.418-1.046 3.418-3.088v-1.893c-0.624 1.146-1.921 1.967-3.492 1.967-2.794 0-4.765-2.117-4.765-5.379 0-2.938 1.895-5.528 4.814-5.528 2.819 0 3.543 1.868 3.543 1.868v-1.868c0.873 0 1.571 0.697 1.571 1.569v8.965c-0.025 3.362-2.295 4.881-5.064 4.881zM113.309 13.248c-2.12 0-3.293 1.868-3.293 3.885 0 2.291 1.197 3.959 3.343 3.959 1.971 0 3.318-1.893 3.318-3.91 0-2.117-1.372-3.935-3.368-3.935z"></path>
<path fill="#323232" style="fill: var(--color5, #323232)" d="M44.48 17.208c0.050 2.192 1.397 3.885 3.667 3.885 1.547 0 2.569-0.548 3.518-1.419l1.073 1.046c-0.948 0.996-2.42 1.893-4.615 1.893-3.293 0-5.289-2.391-5.289-5.578 0-2.814 1.971-5.329 5.164-5.329 2.694 0 4.316 1.793 4.815 4.134 0.15 0.722-0.424 1.37-1.148 1.37h-7.185zM47.898 13.199c-1.921 0-3.068 1.195-3.343 2.689h6.511c-0.249-1.37-1.322-2.689-3.168-2.689z"></path>
<path fill="#323232" style="fill: var(--color5, #323232)" d="M58.451 24.629c-0.474 1.295-1.272 2.341-2.869 2.341-0.624 0-1.098-0.075-1.597-0.274v-1.544c0.374 0.199 0.723 0.299 1.173 0.299 1.247 0 1.597-0.872 1.971-1.893l0.474-1.22-3.892-10.335h1.771l3.118 8.143 2.994-8.143h1.721l-4.865 12.626z"></path>
<path fill="#323232" style="fill: var(--color5, #323232)" d="M65.81 17.208c0.050 2.192 1.397 3.885 3.667 3.885 1.546 0 2.569-0.548 3.517-1.419l1.073 1.046c-0.973 0.996-2.42 1.893-4.616 1.893-3.293 0-5.288-2.391-5.288-5.578 0-2.814 1.971-5.329 5.164-5.329 2.694 0 4.316 1.793 4.814 4.134 0.15 0.722-0.424 1.37-1.148 1.37h-7.185zM69.228 13.199c-1.921 0-3.069 1.195-3.343 2.689h6.511c-0.224-1.37-1.322-2.689-3.168-2.689z"></path>
<path fill="#323232" style="fill: var(--color5, #323232)" d="M80.105 22.387c-1.847 0-3.019-0.722-3.019-2.764v-6.101h-1.521v-1.519h1.521v-4.806h1.647v4.806h1.946v1.519h-1.946v6.051c0 0.797 0.424 1.27 1.422 1.27h0.549v1.519c0 0-0.549 0.025-0.598 0.025z"></path>
<path fill="#323232" style="fill: var(--color5, #323232)" d="M84.021 17.208c0.050 2.192 1.397 3.885 3.668 3.885 1.546 0 2.569-0.548 3.517-1.419l1.073 1.046c-0.948 0.996-2.42 1.893-4.615 1.893-3.294 0-5.289-2.391-5.289-5.578 0-2.814 1.971-5.329 5.164-5.329 2.694 0 4.316 1.793 4.815 4.134 0.15 0.722-0.424 1.37-1.148 1.37h-7.185zM87.439 13.199c-1.921 0-3.069 1.195-3.343 2.689h6.511c-0.249-1.37-1.322-2.689-3.168-2.689z"></path>
<path fill="#323232" style="fill: var(--color5, #323232)" d="M94.698 22.313v-15.091h1.647v15.091h-1.647z"></path>
<path fill="#323232" style="fill: var(--color5, #323232)" d="M99.538 22.313v-15.091h1.647v15.091h-1.647z"></path>
<path fill="#323232" style="fill: var(--color5, #323232)" d="M104.228 9.389v-2.416h0.474c0.649 0 1.172 0.523 1.172 1.17v1.245h-1.646zM104.228 22.313v-10.31h1.646v10.285h-1.646v0.025z"></path>
<path fill="#323232" style="fill: var(--color5, #323232)" d="M122.24 17.208c0.050 2.192 1.397 3.885 3.668 3.885 1.546 0 2.569-0.548 3.518-1.419l1.072 1.046c-0.972 0.996-2.42 1.893-4.614 1.893-3.294 0-5.29-2.391-5.29-5.578 0-2.814 1.971-5.329 5.164-5.329 2.694 0 4.316 1.793 4.815 4.134 0.15 0.722-0.423 1.37-1.147 1.37h-7.185zM125.658 13.199c-1.921 0-3.069 1.195-3.343 2.689h6.511c-0.25-1.37-1.322-2.689-3.168-2.689z"></path>
<path fill="#323232" style="fill: var(--color5, #323232)" d="M139.952 22.313v-6.574c0-1.469-0.823-2.515-2.42-2.515-1.921 0-2.969 1.693-2.969 3.138v5.952h-1.647v-9.139c0-0.647 0.524-1.17 1.173-1.17h0.474v1.494c0.624-1.121 1.846-1.793 3.218-1.793 2.32 0 3.817 1.494 3.817 3.76v6.848h-1.647z"></path>
<path fill="#323232" style="fill: var(--color5, #323232)" d="M148.958 22.612c-3.217 0-5.238-2.416-5.238-5.479 0-2.963 2.145-5.429 5.114-5.429 2.346 0 3.668 1.195 4.416 2.167l-1.248 0.971c-0.673-0.872-1.646-1.594-3.093-1.594-2.121 0-3.518 1.818-3.518 3.81 0 2.341 1.472 4.034 3.493 4.034 1.472 0 2.495-0.722 3.367-1.893l1.198 0.872c-0.948 1.395-2.545 2.54-4.491 2.54z"></path>
<path fill="#323232" style="fill: var(--color5, #323232)" d="M156.567 17.208c0.049 2.192 1.397 3.885 3.666 3.885 1.547 0 2.57-0.548 3.518-1.419l1.073 1.046c-0.949 0.996-2.42 1.893-4.615 1.893-3.292 0-5.289-2.391-5.289-5.578 0-2.814 1.97-5.329 5.164-5.329 2.694 0 4.315 1.793 4.814 4.134 0.15 0.722-0.423 1.37-1.147 1.37h-7.184zM159.985 13.199c-1.921 0-3.070 1.195-3.344 2.689h6.512c-0.25-1.37-1.322-2.689-3.168-2.689z"></path>
<path fill="#000" style="fill: var(--color4, #000)" d="M18.644 0c-10.803 0-18.644 5.728-18.644 16.062 0 9.488 8.909 15.938 18.401 15.938 9.977 0 18.522-6.574 18.522-16.187 0-10.21-8.788-15.813-18.279-15.813zM21.605 25.675c-5.729 0-11.070-3.063-11.070-7.595 0-4.931 4.709-7.645 11.215-7.645 5.729 0 11.021 2.665 11.021 7.546-0.024 4.557-5.171 7.695-11.167 7.695z"></path>
</symbol>
<symbol id="icon-value-2" viewBox="0 0 235 32">
<path fill="#888" style="fill: var(--color6, #888)" d="M67.443 1.111h-14.842l12.593 15.226-21.588 15.662h14.392l12.593-9.571 8.096 9.571h14.842l-13.492-15.662 21.588-15.226h-14.842l-12.143 8.701-7.196-8.701z"></path>
<path fill="#888" style="fill: var(--color6, #888)" d="M115.567 21.994l-14.392-21.317 13.942 0.435 8.096 12.616 13.492-12.616h14.392l-24.736 20.882-2.699 10.006h-10.794l2.699-10.006z"></path>
<path fill="#888" style="fill: var(--color6, #888)" d="M158.742 0.677l-9.445 8.701h27.931c1.446 0 2.262 1.663 1.376 2.806-0.33 0.425-0.838 0.674-1.376 0.674h-15.787l-7.646 6.961h20.003c1.312 0 2.010 1.55 1.139 2.532-0.288 0.326-0.704 0.513-1.139 0.513h-23.152l-9.445 9.136h32.814c5.419 0 10.27-3.366 12.165-8.444l1.122-3.004c0.762-2.040-0.747-4.214-2.925-4.214 2.118 0 3.97-1.433 4.499-3.483l1.59-6.153c0.787-3.051-1.515-6.026-4.667-6.026h-27.058z"></path>
<path fill="#888" style="fill: var(--color6, #888)" d="M201.918 0.677l-9.445 8.701h27.931c1.446 0 2.262 1.663 1.376 2.806-0.33 0.425-0.838 0.674-1.376 0.674h-15.787l-7.646 6.961h20.003c1.314 0 2.010 1.55 1.139 2.532-0.288 0.326-0.704 0.513-1.139 0.513h-23.152l-9.445 9.136h32.814c5.419 0 10.27-3.366 12.165-8.444l1.122-3.004c0.762-2.040-0.747-4.214-2.925-4.214 2.118 0 3.97-1.433 4.499-3.483l1.59-6.153c0.789-3.051-1.515-6.026-4.667-6.026h-27.058z"></path>
<path fill="#888" style="fill: var(--color6, #888)" d="M2.73 27.548c-1.338-1.294-2.913-3.859-2.713-5.793 0.285-3.402 0.719-6.461 1.985-9.698 0.598-1.505 1.534-3.020 2.713-4.161 0.794-0.928 1.588-1.824 2.68-2.496 2.425-1.53 4.637-2.896 7.478-3.681 3.531-1.051 7.37-1.498 11.051-1.664 4.525-0.204 9.094 0.199 11.581 0.64 1.82 0.32 3.607 0.896 5.36 1.728 1.654 0.768 2.945 1.888 4.070 3.137 0.523 0.595 0.845 1.411 1.154 2.191 0.024 0.059 0.047 0.118 0.070 0.177 1.258 3.227-0.018 8.549-1.423 11.81-0.624 1.409-1.328 2.751-2.349 3.937-1.712 1.987-3.601 3.613-5.956 4.833-2.314 1.199-4.616 1.894-7.147 2.528-2.309 0.57-4.897 0.928-7.279 0.928l-0.205 0.003c-6.096 0.075-12.055 0.148-17.761-2.275-1.257-0.544-2.349-1.248-3.309-2.144zM19.374 9.207c-1.654 0.288-3.176 0.736-4.599 1.6-3.014 1.778-3.64 5.731-3.64 8.802 0 0.768 1.026 2.176 1.754 2.432 5.44 1.846 13.547 1.876 18.926 0.096 1.191-0.384 2.151-0.96 3.011-1.792 1.746-1.747 2.812-4.716 2.812-7.137 0-1.856-1.125-3.393-2.978-3.745-4.867-0.919-10.415-1.104-15.287-0.256z"></path>
</symbol>
<symbol id="icon-value-4" viewBox="0 0 31 32">
<path fill="#888" style="fill: var(--color6, #888)" d="M26.349 5.965c-0.015 0-0.046-0.023-0.054-0.062-0.015-0.054 0.008-0.1 0.069-0.108 0.046-0.008 0.069 0.023 0.077 0.062 0.015 0.054 0 0.093-0.093 0.108z"></path>
<path fill="#888" style="fill: var(--color6, #888)" d="M22.67 15.205c-0.015-0.015-0.039-0.039-0.039-0.054 0.008-0.046 0.039-0.062 0.077-0.039 0.015 0.008 0.031 0.046 0.023 0.062s-0.039 0.023-0.062 0.031z"></path>
<path fill="#888" style="fill: var(--color6, #888)" d="M11.771 7.538c0.008-0.015 0.015-0.046 0.039-0.054 0.046-0.015 0.069 0.008 0.077 0.054 0 0.023-0.015 0.054-0.031 0.062-0.039 0-0.077-0.008-0.085-0.062z"></path>
<path fill="#888" style="fill: var(--color6, #888)" d="M4.559 8.078c-0.015 0.031-0.039 0.039-0.046 0.015-0.008-0.015-0.008-0.039-0.008-0.062 0-0.008 0.015-0.015 0.023-0.015 0.031 0.015 0.039 0.031 0.031 0.062z"></path>
<path fill="#888" style="fill: var(--color6, #888)" d="M31.371 14.048c-0.015 0.031-0.039 0.039-0.062 0.023-0.015-0.008-0.023-0.031-0.039-0.046 0.023-0.008 0.046-0.023 0.062-0.023s0.023 0.031 0.039 0.046z"></path>
<path fill="#888" style="fill: var(--color6, #888)" d="M19.107 6.828c-0.015-0.008-0.031-0.015-0.046-0.031 0.008-0.008 0.015-0.023 0.023-0.023 0.015 0.008 0.031 0.015 0.046 0.023-0.008 0.008-0.015 0.015-0.023 0.031z"></path>
<path fill="#888" style="fill: var(--color6, #888)" d="M10.699 7.669c0.015-0.285 0.154-0.501 0.285-0.717 0.771-1.242 1.543-2.491 2.314-3.733 0.609-0.987 1.226-1.967 1.836-2.954 0.208-0.332 0.486-0.339 0.71-0.008 0.741 1.134 1.481 2.268 2.214 3.394 0.956 1.466 1.921 2.939 2.877 4.404 0.895 1.373 1.79 2.746 2.684 4.119 0.671 1.034 1.35 2.059 2.021 3.085 0.231 0.355 0.239 0.733 0.023 1.095-1.103 1.844-2.222 3.687-3.332 5.531-0.309 0.509-0.617 1.018-0.926 1.527-0.193 0.316-0.463 0.332-0.663 0.023-0.602-0.918-1.196-1.836-1.79-2.754-0.748-1.157-1.496-2.314-2.245-3.471-0.694-1.072-1.388-2.152-2.090-3.224-0.748-1.149-1.496-2.299-2.245-3.448-0.517-0.787-1.034-1.574-1.535-2.368-0.069-0.139-0.085-0.332-0.139-0.501z"></path>
<path fill="#888" style="fill: var(--color6, #888)" d="M0.054 7.361c-0.093-0.363 0.147-0.617 0.309-0.879 1.196-1.936 2.407-3.872 3.61-5.816 0.108-0.17 0.201-0.339 0.316-0.501 0.162-0.216 0.409-0.216 0.563 0.008 0.401 0.602 0.795 1.211 1.196 1.82 0.694 1.064 1.396 2.137 2.090 3.201 0.64 0.987 1.28 1.975 1.921 2.962 0.733 1.134 1.473 2.26 2.214 3.394 0.501 0.771 1.003 1.543 1.504 2.322 0.316 0.486 0.64 0.972 0.956 1.466 0.208 0.324 0.224 0.686 0.031 1.003-0.625 1.057-1.265 2.106-1.905 3.155-0.694 1.149-1.381 2.306-2.075 3.456-0.116 0.201-0.231 0.393-0.37 0.586-0.162 0.231-0.409 0.231-0.555-0.008-0.555-0.887-1.111-1.782-1.666-2.669-0.748-1.211-1.496-2.414-2.245-3.625-0.802-1.296-1.604-2.592-2.407-3.888-0.795-1.28-1.597-2.569-2.391-3.849-0.324-0.525-0.656-1.041-0.964-1.574-0.093-0.162-0.123-0.363-0.185-0.548 0.008-0.008 0.031-0.015 0.054-0.015z"></path>
<path fill="#888" style="fill: var(--color6, #888)" d="M31.055 6.99c0.023 0.324-0.093 0.586-0.255 0.848-0.98 1.604-1.944 3.224-2.916 4.836-0.386 0.64-0.779 1.28-1.172 1.921-0.208 0.339-0.463 0.339-0.679 0.008-1.057-1.612-2.121-3.224-3.178-4.836-0.355-0.54-0.71-1.080-1.064-1.62-0.231-0.363-0.231-0.733-0.015-1.088 1.095-1.79 2.198-3.564 3.301-5.353 0.278-0.455 0.555-0.91 0.833-1.358 0.031-0.046 0.062-0.1 0.093-0.147 0.193-0.27 0.455-0.27 0.64 0 0.316 0.447 0.617 0.895 0.933 1.342 0.856 1.242 1.712 2.476 2.569 3.718 0.27 0.393 0.555 0.764 0.802 1.172 0.085 0.154 0.069 0.37 0.108 0.555z"></path>
<path fill="#888" style="fill: var(--color6, #888)" d="M6.742 27.733c-0.1 0.424-0.185 0.802-0.278 1.18-0.154 0.687-0.309 1.373-0.471 2.059-0.1 0.424-0.401 0.656-0.833 0.648-0.224 0-0.455-0.008-0.663-0.069-0.123-0.039-0.27-0.177-0.309-0.301-0.123-0.409-0.216-0.833-0.301-1.25-0.154-0.741-0.293-1.481-0.44-2.221-0.069-0.355-0.147-0.717-0.208-1.072-0.031-0.193 0.046-0.27 0.239-0.278 0.255 0 0.517 0.008 0.771 0 0.154-0.008 0.224 0.077 0.239 0.216 0.108 0.733 0.208 1.458 0.316 2.191 0.085 0.563 0.177 1.126 0.309 1.697 0.046-0.177 0.093-0.363 0.131-0.54 0.216-0.98 0.424-1.967 0.64-2.947 0.069-0.309 0.193-0.409 0.501-0.409 0.247 0 0.501 0 0.748 0 0.231 0 0.362 0.093 0.417 0.316 0.116 0.486 0.216 0.972 0.324 1.458 0.154 0.702 0.316 1.412 0.517 2.121 0.031-0.177 0.062-0.355 0.085-0.532 0.1-0.663 0.201-1.334 0.293-1.998 0.062-0.424 0.123-0.848 0.185-1.273 0.031-0.247 0.093-0.301 0.347-0.301 0.224 0 0.447 0 0.671 0 0.208 0 0.293 0.108 0.255 0.301-0.177 0.879-0.347 1.759-0.525 2.638-0.108 0.54-0.216 1.080-0.324 1.62-0.093 0.471-0.309 0.64-0.787 0.64-0.185 0-0.378 0.008-0.555-0.039-0.432-0.116-0.54-0.486-0.625-0.864-0.216-0.957-0.432-1.913-0.648-2.869 0.023-0.031 0.008-0.054-0.023-0.123z"></path>
<path fill="#888" style="fill: var(--color6, #888)" d="M17.864 29.467c0 0.586 0 1.165 0 1.751 0 0.332-0.046 0.386-0.37 0.386-0.201 0-0.401 0-0.594 0-0.17 0-0.255-0.069-0.255-0.255 0-2.16 0-4.312 0-6.472 0-0.17 0.085-0.247 0.247-0.247 0.224 0 0.447 0 0.671 0 0.247 0 0.309 0.069 0.309 0.309 0 1.118 0 2.237 0 3.355 0 0.069 0 0.139 0 0.27 0.077-0.085 0.123-0.131 0.162-0.185 0.44-0.586 0.872-1.172 1.311-1.759 0.1-0.131 0.216-0.201 0.393-0.193 0.285 0.015 0.578 0 0.864 0.008 0.062 0 0.154 0.031 0.177 0.069 0.023 0.046-0.015 0.139-0.054 0.185-0.548 0.686-1.103 1.365-1.666 2.036-0.1 0.123-0.1 0.201-0.008 0.332 0.571 0.764 1.134 1.535 1.697 2.306 0.093 0.123 0.046 0.231-0.1 0.239-0.37 0.008-0.748 0.015-1.118-0.008-0.093-0.008-0.193-0.1-0.255-0.185-0.409-0.571-0.802-1.157-1.203-1.736-0.046-0.069-0.1-0.139-0.154-0.216-0.023-0.008-0.039 0-0.054 0.008z"></path>
<path fill="#888" style="fill: var(--color6, #888)" d="M21.744 29.437c-0.093 0.594 0.301 1.126 0.864 1.134 0.586 0.008 1.165-0.031 1.751-0.054 0.27-0.015 0.309 0.008 0.309 0.27 0 0.162-0.008 0.324 0 0.478s-0.069 0.208-0.208 0.239c-0.748 0.177-1.512 0.147-2.26 0.085-0.686-0.054-1.219-0.463-1.496-1.118-0.116-0.278-0.185-0.594-0.201-0.887-0.023-0.517-0.023-1.041 0.046-1.55 0.123-0.941 0.864-1.589 1.82-1.658 0.54-0.039 1.064 0 1.535 0.301 0.54 0.347 0.818 0.856 0.91 1.466 0.046 0.332 0.039 0.679 0.046 1.018 0.008 0.216-0.054 0.278-0.27 0.278-0.864 0-1.72 0-2.584 0-0.093 0-0.17 0-0.262 0zM23.611 28.55c0-0.424-0.1-0.794-0.478-1.003-0.309-0.17-0.648-0.17-0.949 0.015-0.363 0.216-0.478 0.571-0.455 0.995 0.633-0.008 1.25-0.008 1.882-0.008z"></path>
<path fill="#888" style="fill: var(--color6, #888)" d="M13.090 31.289c-0.116 0.054-0.193 0.093-0.27 0.139-0.501 0.27-1.057 0.239-1.581 0.162-0.494-0.077-0.81-0.417-0.941-0.926-0.108-0.44-0.108-0.872 0.069-1.28 0.224-0.517 0.686-0.733 1.211-0.802 0.417-0.054 0.841-0.054 1.265-0.069 0.139 0 0.201-0.046 0.185-0.185-0.008-0.093 0-0.193 0-0.285-0.015-0.424-0.208-0.633-0.625-0.64-0.393-0.008-0.794 0.015-1.196 0.031-0.147 0.008-0.293 0.023-0.44 0.031-0.162 0.015-0.239-0.054-0.239-0.216s0-0.324 0-0.478c0-0.139 0.054-0.224 0.185-0.247 0.262-0.046 0.532-0.108 0.794-0.116 0.494-0.008 0.995-0.039 1.473 0.039 0.81 0.131 1.273 0.748 1.28 1.62 0.008 1.080 0 2.16 0 3.232 0 0.231-0.069 0.301-0.301 0.301-0.185 0-0.37 0-0.555 0-0.185 0.008-0.324-0.046-0.316-0.309zM13.028 29.353c-0.347 0-0.671-0.031-0.987 0.008-0.494 0.062-0.756 0.733-0.47 1.142 0.039 0.054 0.116 0.1 0.185 0.123 0.416 0.139 0.81 0.015 1.188-0.162 0.039-0.015 0.077-0.085 0.077-0.131 0.015-0.324 0.008-0.64 0.008-0.98z"></path>
<path fill="#888" style="fill: var(--color6, #888)" d="M14.833 28.095c0-1.057 0-2.121 0-3.178 0-0.239 0.062-0.301 0.293-0.301 0.208 0 0.424 0 0.633 0 0.247 0 0.309 0.062 0.309 0.301 0 0.548 0 1.088 0 1.635 0 1.55 0 3.109 0 4.659 0 0.339-0.039 0.378-0.37 0.378-0.185 0-0.37 0-0.555 0-0.247 0-0.309-0.062-0.309-0.308 0-1.057 0-2.121 0-3.186z"></path>
<path fill="#888" style="fill: var(--color6, #888)" d="M26.419 26.699c0.309-0.1 0.609-0.208 0.91-0.309 0.008 0 0.015 0 0.015-0.008 0.471-0.085 0.54-0.031 0.54 0.44 0 0.1-0.008 0.208 0 0.309 0.008 0.177-0.062 0.239-0.239 0.27-0.339 0.062-0.671 0.154-1.003 0.231-0.154 0.039-0.193 0.131-0.193 0.278 0.008 1.111 0 2.221 0 3.332 0 0.293-0.054 0.347-0.355 0.347-0.208 0-0.409 0.008-0.617 0-0.201-0.008-0.262-0.077-0.262-0.27 0-1.55 0-3.093 0-4.644 0-0.208 0.054-0.262 0.262-0.262 0.185 0 0.37 0 0.555 0 0.324 0.008 0.332 0.015 0.386 0.285z"></path>
</symbol>
<symbol id="icon-value-5" viewBox="0 0 73 32">
<path fill="#888" style="fill: var(--color6, #888)" d="M53.608 10.233h-7.103l-3.643 5.7-3.704-5.7h-7.47l7.256 10.42-7.133 10.358h6.98c0.276-0.429 0.888-1.348 1.806-2.758s1.592-2.452 1.99-3.095l3.827 5.853h7.44c-0.306-0.46-2.786-3.984-7.44-10.604l7.195-10.175z"></path>
<path fill="#888" style="fill: var(--color6, #888)" d="M23.605 9.743c-5.909 0-10.685 4.781-10.685 10.696s4.776 10.696 10.685 10.696c5.909 0 10.685-4.781 10.685-10.696s-4.776-10.696-10.685-10.696zM23.605 25.525c-2.817 0-5.082-2.268-5.082-5.087s2.266-5.087 5.082-5.087c2.817 0 5.082 2.268 5.082 5.087 0 2.789-2.266 5.087-5.082 5.087z"></path>
<path fill="#888" style="fill: var(--color6, #888)" d="M14.206 10.202h-4.531v-1.594c0-1.042 0.276-1.777 0.827-2.176 0.551-0.429 1.194-0.644 1.898-0.644s1.316 0.061 1.898 0.215v-5.21c-0.612-0.306-1.623-0.46-3.031-0.46-2.48 0-4.439 0.736-5.848 2.207s-2.112 3.432-2.112 5.853v1.808h-3.306v5.363h3.306v15.507h6.368v-15.507h3c0.398-0.889 0.918-1.686 1.531-2.421v-2.942z"></path>
<path fill="#888" style="fill: var(--color6, #888)" d="M68.395 19.949c1.623 0.613 3.674 0.184 4.776-0.981 0.153-0.184 0.092-0.46-0.092-0.552-1.041-0.521-1.745-1.41-2.327-2.421-0.092-0.184-0.214-0.337-0.306-0.521 0.765 0.031 1.408-0.153 1.408-0.153-0.276 0.061-0.674-0.061-1.133-0.306 0.337-0.061 0.582-0.153 0.582-0.153-0.337 0.123-1.102-0.337-1.837-0.95-0.031-0.031-0.031-0.031-0.061-0.061-1.837-1.716-4.684-3.524-8.48-3.524s-7.746 2.85-9.277 6.528c-0.429 0.766-1.133 1.839-1.868 1.839 0 0 0.857 0.092 1.316-0.153-0.184 0.827-0.582 2.819-0.551 3.218l1.316-2.39c-0.367 0.705-1.072 2.636-0.122 5.149 0.122-0.981 0.49-1.931 0.49-1.931-0.214 1.655-0.061 2.666 0.276 3.616 0.276 0.674 0.643 1.287 1.133 1.869 2.082 2.237 5.113 3.586 8.419 3.371 0 0 0 0 0.031 0 5.174-0.337 9.399-4.505 9.828-9.654 0.031-0.46 0.061-1.042 0.031-1.471 0 0-1.194 0.644-2.664 0.49-1.286-0.153-2.725-1.195-3.031-1.471 0 0.031 0 0.061 0.031 0.061 0.031 0.061 0.031 0.123 0.061 0.184s0.031 0.153 0.061 0.214c0.031 0.092 0.031 0.153 0.061 0.245 0 0.061 0.031 0.123 0.031 0.184 0.031 0.245 0.061 0.49 0.061 0.736 0 2.819-2.296 5.118-5.113 5.118s-5.113-2.298-5.113-5.118v0.031c0-1.348 0.52-2.605 1.378-3.524 0 0 0 0 0.031-0.031 0.276-0.276 0.582-0.552 0.918-0.766l0.031-0.031c0 0 0.031 0 0.031-0.031 0.061-0.031 0.092-0.061 0.153-0.092s0.092-0.061 0.153-0.092c0 0-0 0 0.031 0 0.122-0.061 0.245-0.123 0.367-0.184 0.031 0 0.031-0.031 0.061-0.031 0.612-0.276 1.286-0.398 1.99-0.398 0.153 0 0.306 0 0.459 0.031 0.52 0.031 1.041 0.184 1.531 0.368 0.031 0 0.031 0 0.061 0.031 0.153 0.061 0.276 0.123 0.429 0.214 0 0 0.031 0 0.031 0.031 0.306 0.184 0.612 0.398 0.888 0.613 0.214 0.245 0.459 0.613 0.582 1.165 0.031-0.092 0.459-0.552-0.949-2.636-0.061-0.153-0.122-0.245-0.122-0.245 0.704 1.44 2.878 4.137 4.011 4.566zM68.916 18.416c-0.245-0.429-0.337-0.919-0.306-0.95 0.429 0.153 0.857 0.306 1.316 0.49 0.214 0.092 0.429-0.123 0.367-0.337-0.153-0.766-0.306-1.624-0.276-1.655 0.367 0.521 1.225 1.869 2.602 2.574 0.214 0.092 0.214 0.429 0 0.521-2.143 1.195-4.654 0.797-6.031-1.042 1.47 0.521 1.806 0.644 2.143 0.644 0.153 0.031 0.245-0.123 0.184-0.245z"></path>
<path fill="#888" style="fill: var(--color6, #888)" d="M69.681 12.349h0.337v-1.256h0.49v-0.337h-1.316v0.337h0.49v1.256z"></path>
<path fill="#888" style="fill: var(--color6, #888)" d="M71.059 11.307l0.429 1.042h0.276l0.429-1.042v1.042h0.337v-1.594h-0.49l-0.398 1.073-0.459-1.073h-0.459v1.594h0.337v-1.042z"></path>
</symbol>
<symbol id="icon-value-6" viewBox="0 0 126 32">
<path fill="#888" style="fill: var(--color6, #888)" d="M82.052 11.125h-1.658v-2.854h-2.456v2.854h-1.668v-6.835h1.668v2.713h2.456v-2.713h1.658v6.835z"></path>
<path fill="#888" style="fill: var(--color6, #888)" d="M84.888 11.125h-1.663v-6.835h1.663v6.835z"></path>
<path fill="#888" style="fill: var(--color6, #888)" d="M91.709 10.28c-0.257 0.282-0.632 0.508-1.126 0.681s-1.036 0.258-1.625 0.258c-0.906 0-1.629-0.274-2.171-0.822s-0.831-1.31-0.869-2.286l-0.005-0.591c0-0.673 0.12-1.26 0.361-1.76 0.241-0.504 0.584-0.89 1.031-1.159 0.45-0.272 0.969-0.408 1.558-0.408 0.861 0 1.53 0.196 2.005 0.587 0.478 0.388 0.757 0.969 0.836 1.742h-1.606c-0.057-0.382-0.181-0.654-0.371-0.817s-0.459-0.244-0.808-0.244c-0.418 0-0.741 0.175-0.969 0.526s-0.344 0.851-0.347 1.502v0.413c0 0.682 0.117 1.195 0.352 1.54 0.237 0.341 0.61 0.512 1.116 0.512 0.434 0 0.757-0.095 0.969-0.286v-1.061h-1.159v-1.131h2.827v2.807z"></path>
<path fill="#888" style="fill: var(--color6, #888)" d="M98.46 11.125h-1.658v-2.854h-2.456v2.854h-1.667v-6.835h1.667v2.713h2.456v-2.713h1.658v6.835z"></path>
<path fill="#888" style="fill: var(--color6, #888)" d="M79.838 17.685c0-0.241-0.087-0.429-0.261-0.563-0.171-0.135-0.474-0.274-0.907-0.418s-0.789-0.283-1.064-0.418c-0.896-0.435-1.344-1.033-1.344-1.793 0-0.379 0.111-0.712 0.332-1 0.225-0.291 0.542-0.516 0.95-0.676 0.408-0.163 0.868-0.244 1.378-0.244 0.497 0 0.942 0.088 1.335 0.263 0.396 0.175 0.703 0.426 0.921 0.751 0.219 0.322 0.328 0.692 0.328 1.108h-1.663c0-0.278-0.087-0.494-0.261-0.648-0.171-0.153-0.404-0.23-0.698-0.23-0.298 0-0.534 0.066-0.708 0.197-0.171 0.128-0.257 0.293-0.257 0.493 0 0.175 0.095 0.335 0.285 0.479 0.19 0.141 0.524 0.288 1.002 0.441 0.478 0.15 0.871 0.313 1.178 0.488 0.747 0.426 1.121 1.012 1.121 1.76 0 0.598-0.228 1.067-0.684 1.408s-1.082 0.512-1.876 0.512c-0.561 0-1.069-0.099-1.525-0.296-0.453-0.2-0.795-0.472-1.026-0.817-0.228-0.347-0.342-0.746-0.342-1.197h1.672c0 0.366 0.095 0.637 0.285 0.812 0.193 0.172 0.505 0.258 0.936 0.258 0.275 0 0.493-0.058 0.651-0.174 0.161-0.119 0.242-0.285 0.242-0.498z"></path>
<path fill="#888" style="fill: var(--color6, #888)" d="M84.712 16.958l-0.684 0.742v1.803h-1.667v-6.835h1.667v3.014l0.58-0.869 1.492-2.145h2.062l-2.337 3.023 2.337 3.812h-1.976l-1.473-2.544z"></path>
<path fill="#888" style="fill: var(--color6, #888)" d="M90.36 19.502h-1.663v-6.835h1.663v6.835z"></path>
<path fill="#888" style="fill: var(--color6, #888)" d="M93.187 18.235h2.902v1.268h-4.57v-6.835h1.668v5.567z"></path>
<path fill="#888" style="fill: var(--color6, #888)" d="M98.459 18.235h2.903v1.268h-4.57v-6.835h1.667v5.567z"></path>
<path fill="#888" style="fill: var(--color6, #888)" d="M81.7 22.317h-2.076v5.563h-1.667v-5.563h-2.038v-1.272h5.781v1.272z"></path>
<path fill="#888" style="fill: var(--color6, #888)" d="M84.978 25.467h-0.903v2.413h-1.667v-6.835h2.722c0.82 0 1.462 0.18 1.924 0.54s0.694 0.868 0.694 1.526c0 0.476-0.098 0.87-0.294 1.183-0.193 0.313-0.497 0.566-0.912 0.76l1.444 2.756v0.070h-1.786l-1.221-2.413zM84.075 24.195h1.055c0.317 0 0.554-0.081 0.713-0.244 0.162-0.166 0.242-0.396 0.242-0.69s-0.081-0.524-0.242-0.69c-0.161-0.169-0.399-0.253-0.713-0.253h-1.055v1.878z"></path>
<path fill="#888" style="fill: var(--color6, #888)" d="M92.683 26.603h-2.285l-0.399 1.277h-1.781l2.537-6.835h1.568l2.556 6.835h-1.791l-0.404-1.277zM90.797 25.331h1.487l-0.746-2.371-0.741 2.371z"></path>
<path fill="#888" style="fill: var(--color6, #888)" d="M97.163 27.88h-1.662v-6.835h1.662v6.835z"></path>
<path fill="#888" style="fill: var(--color6, #888)" d="M104.098 27.88h-1.657l-2.451-4.253v4.253h-1.668v-6.835h1.668l2.447 4.253v-4.253h1.662v6.835z"></path>
<path fill="#888" style="fill: var(--color6, #888)" d="M106.929 27.88h-1.662v-6.835h1.662v6.835z"></path>
<path fill="#888" style="fill: var(--color6, #888)" d="M113.866 27.88h-1.658l-2.451-4.253v4.253h-1.667v-6.835h1.667l2.447 4.253v-4.253h1.663v6.835z"></path>
<path fill="#888" style="fill: var(--color6, #888)" d="M120.583 27.035c-0.256 0.282-0.631 0.509-1.126 0.681s-1.036 0.258-1.624 0.258c-0.906 0-1.63-0.274-2.171-0.822s-0.832-1.31-0.87-2.286l-0.005-0.591c0-0.673 0.121-1.26 0.362-1.76 0.24-0.504 0.584-0.89 1.031-1.16 0.45-0.272 0.969-0.408 1.558-0.408 0.861 0 1.529 0.196 2.004 0.587 0.478 0.388 0.757 0.969 0.836 1.742h-1.606c-0.056-0.382-0.18-0.654-0.37-0.817s-0.459-0.244-0.808-0.244c-0.418 0-0.741 0.175-0.969 0.526s-0.343 0.851-0.347 1.502v0.413c0 0.682 0.117 1.195 0.352 1.54 0.238 0.341 0.61 0.512 1.116 0.512 0.434 0 0.757-0.095 0.97-0.286v-1.061h-1.16v-1.131h2.827v2.807z"></path>
<path fill="#888" style="fill: var(--color6, #888)" d="M119.193 10.151c-0.052 0.052-0.081 0.121-0.081 0.194v7.783c0 0.152-0.125 0.275-0.278 0.275h-12.369c-0.154 0-0.278-0.123-0.278-0.275v-12.223c0-0.152 0.124-0.275 0.278-0.275h12.394c0.074 0 0.144-0.029 0.196-0.080l0.557-0.549c0.175-0.173 0.050-0.469-0.197-0.469h-14.062c-0.153 0-0.278 0.123-0.278 0.275v14.421c0 0.152 0.125 0.275 0.278 0.275h14.594c0.153 0 0.277-0.123 0.277-0.275v-9.431c0-0.245-0.3-0.367-0.474-0.194l-0.556 0.549z"></path>
<path fill="#888" style="fill: var(--color6, #888)" d="M108.062 10.534l2.033-1.443c0.183-0.13 0.437-0.092 0.575 0.084l2.17 2.804c0.154 0.2 0.454 0.217 0.63 0.036l11.367-11.623c0.144-0.147 0.374-0.168 0.542-0.049l0.322 0.227c0.195 0.137 0.233 0.408 0.083 0.593l-12.733 15.728c-0.17 0.21-0.494 0.205-0.657-0.009l-4.422-5.765c-0.142-0.185-0.102-0.448 0.089-0.584z"></path>
<path fill="#888" style="fill: var(--color6, #888)" d="M69.354 0h-66.574c-1.535 0-2.78 1.23-2.78 2.747v26.506c0 1.517 1.245 2.747 2.78 2.747h66.574c1.535 0 2.78-1.23 2.78-2.747v-26.506c0-1.517-1.245-2.747-2.78-2.747z"></path>
<path fill="#fff" style="fill: var(--color1, #fff)" d="M25.636 27.742h-5.755v-9.908h-8.526v9.908h-5.788v-23.726h5.788v9.419h8.526v-9.419h5.755v23.726z"></path>
<path fill="#fff" style="fill: var(--color1, #fff)" d="M41.023 21.436c0-0.837-0.302-1.488-0.907-1.956-0.594-0.467-1.644-0.951-3.15-1.45s-2.738-0.983-3.694-1.45c-3.111-1.51-4.667-3.585-4.667-6.225 0-1.314 0.385-2.471 1.154-3.471 0.781-1.010 1.88-1.793 3.298-2.347 1.418-0.565 3.012-0.847 4.782-0.847 1.726 0 3.271 0.304 4.634 0.913 1.374 0.608 2.441 1.477 3.199 2.607 0.759 1.119 1.138 2.401 1.138 3.846h-5.772c0-0.967-0.302-1.716-0.907-2.249-0.594-0.532-1.402-0.799-2.424-0.799-1.034 0-1.852 0.228-2.457 0.684-0.594 0.445-0.891 1.016-0.891 1.711 0 0.608 0.33 1.162 0.99 1.662 0.66 0.489 1.82 0.999 3.48 1.532 1.66 0.521 3.023 1.086 4.090 1.695 2.595 1.477 3.892 3.514 3.892 6.111 0 2.075-0.791 3.705-2.375 4.889s-3.754 1.776-6.514 1.776c-1.946 0-3.71-0.342-5.294-1.027-1.572-0.695-2.759-1.64-3.562-2.835-0.791-1.206-1.187-2.591-1.187-4.155h5.805c0 1.271 0.33 2.211 0.989 2.819 0.671 0.598 1.754 0.896 3.249 0.896 0.956 0 1.71-0.201 2.259-0.603 0.561-0.413 0.841-0.989 0.841-1.727z"></path>
<path fill="#fff" style="fill: var(--color1, #fff)" d="M67.954 8.432h-7.207v19.31h-5.788v-19.31h-7.075v-4.416h20.070v4.416z"></path>
</symbol>
</defs>
</svg>
